<svg width="452" height="127" viewBox="0 0 452 127" fill="none" xmlns="http://www.w3.org/2000/svg">
<g clip-path="url(#clip0_1418_8382)">
<path d="M305.806 39.8389C305.806 17.6 323.468 0 346.109 0C368.75 0 386.572 17.4389 386.572 39.8389C386.572 62.2389 368.909 80 346.109 80C323.309 80 305.806 62.2389 305.806 39.8389ZM368.427 39.8389C368.427 26.4 359.113 16.9583 346.109 16.9583C333.105 16.9583 323.95 26.5583 323.95 39.8389C323.95 53.1194 333.102 63.0389 346.109 63.0389C359.116 63.0389 368.427 53.4389 368.427 39.8389Z" fill="black"/>
<path d="M265.77 0.00277778C257.418 0.00277778 250.047 2.92778 244.709 8.03611C243.817 8.88889 242.34 8.275 242.34 7.04445V2.77778C242.34 1.24444 241.091 0 239.552 0H227.105C225.566 0 224.318 1.24444 224.318 2.77778V77.2222C224.318 78.7556 225.566 80 227.105 80H239.552C241.091 80 242.34 78.7556 242.34 77.2222V34.8917C242.34 25.0306 250.273 16.9083 260.169 16.8194C270.76 16.725 278.222 24.2639 278.222 34.7778V77.225C278.222 78.7583 279.471 80.0028 281.01 80.0028H293.456C294.995 80.0028 296.244 78.7583 296.244 77.225V30.8611C296.244 15.5139 283.466 0.00277778 265.77 0.00277778Z" fill="black"/>
<path d="M133.438 39.8389C133.438 17.6 151.1 0 173.739 0C196.377 0 214.201 17.4389 214.201 39.8389C214.201 62.2389 196.539 80 173.739 80C150.939 80 133.435 62.2389 133.435 39.8389H133.438ZM196.059 39.8389C196.059 26.4 186.746 16.9583 173.742 16.9583C160.737 16.9583 151.583 26.5583 151.583 39.8389C151.583 53.1194 160.735 63.0389 173.742 63.0389C186.749 63.0389 196.059 53.4389 196.059 39.8389Z" fill="black"/>
<path d="M40.4624 63.0389C27.2965 63.0389 18.1447 53.6 18.1447 40C18.1447 26.4 27.2965 16.9611 40.4624 16.9611C46.8182 16.9611 52.3795 18.8917 56.6613 22.6556C57.9213 23.7639 59.8615 23.5583 60.8177 22.1806L67.1233 13.1028C67.9261 11.9472 67.7477 10.3694 66.6856 9.44722C59.6887 3.36944 50.4143 0 40.4624 0C17.5007 0 0 17.4389 0 40C0 62.5611 17.5007 80 40.4624 80C50.2916 80 59.4629 76.7139 66.4292 70.775C67.5052 69.8556 67.692 68.2639 66.8864 67.1028L60.5696 58.0139C59.6246 56.6528 57.7151 56.4389 56.4578 57.5194C52.2039 61.1694 46.7207 63.0389 40.4624 63.0389Z" fill="black"/>
<path d="M412.017 22.2389C412.017 18.2389 416.031 16 423.095 16C429.431 16 434.41 17.9194 438.505 21.8472C439.731 23.025 441.736 22.8 442.706 21.4056L448.791 12.6472C449.561 11.5389 449.432 10.0278 448.459 9.09167C442.232 3.09167 433.847 0 423.574 0C405.912 0 395.154 8.96111 395.154 23.6806C395.154 51.5194 435.135 43.2 435.135 57.1194C435.135 61.6 430.959 64 423.092 64C415.666 64 409.605 61.85 404.713 57.4556C403.467 56.3361 401.519 56.5667 400.562 57.9417L394.577 66.5583C393.775 67.7139 393.956 69.2972 395.021 70.2194C402.255 76.4972 412.02 80 422.774 80C440.757 80 451.997 70.7194 451.997 55.6806C451.997 27.3611 412.017 34.8806 412.017 22.2417V22.2389Z" fill="black"/>
<path d="M117.736 0C110.07 0 104.004 2.50833 99.6356 6.95278C98.7658 7.83889 97.2549 7.21389 97.2549 5.975V2.77778C97.2549 1.24444 96.0061 0 94.4673 0H82.0205C80.4818 0 79.2329 1.24444 79.2329 2.77778V77.2222C79.2329 78.7556 80.4818 80 82.0205 80H94.4673C96.0061 80 97.2549 78.7556 97.2549 77.2222V36.3972C97.2577 23.0167 104.467 16.8167 114.622 16.8167C118.056 16.8167 120.755 17.55 123.132 19.1528C124.404 20.0111 126.129 19.7056 127.002 18.4472L133.692 8.81667C134.528 7.61389 134.289 5.96111 133.132 5.05833C128.702 1.59444 123.687 0.00277778 117.733 0.00277778L117.736 0Z" fill="black"/>
</g>
<path d="M261.85 126V100.25H267.7V102.65C269.667 100.717 272.167 99.75 275.2 99.75C277.167 99.75 278.9 100.183 280.4 101.05C281.933 101.917 283.133 103.117 284 104.65C284.867 106.15 285.3 107.917 285.3 109.95V126H279.45V110.85C279.45 108.983 278.917 107.517 277.85 106.45C276.783 105.383 275.35 104.85 273.55 104.85C272.283 104.85 271.15 105.117 270.15 105.65C269.183 106.15 268.367 106.867 267.7 107.8V126H261.85ZM303.255 126.45C300.688 126.45 298.372 125.867 296.305 124.7C294.272 123.533 292.638 121.95 291.405 119.95C290.205 117.917 289.605 115.65 289.605 113.15C289.605 110.65 290.188 108.4 291.355 106.4C292.522 104.4 294.088 102.817 296.055 101.65C298.022 100.45 300.222 99.85 302.655 99.85C305.088 99.85 307.238 100.45 309.105 101.65C311.005 102.85 312.505 104.483 313.605 106.55C314.705 108.583 315.255 110.9 315.255 113.5V115.05H295.555C295.822 116.317 296.322 117.433 297.055 118.4C297.788 119.367 298.722 120.133 299.855 120.7C300.988 121.233 302.205 121.5 303.505 121.5C304.705 121.5 305.838 121.317 306.905 120.95C308.005 120.583 308.922 120.05 309.655 119.35L313.455 122.95C311.922 124.15 310.338 125.033 308.705 125.6C307.072 126.167 305.255 126.45 303.255 126.45ZM295.505 110.8H309.455C309.222 109.6 308.772 108.55 308.105 107.65C307.438 106.75 306.622 106.05 305.655 105.55C304.722 105.017 303.688 104.75 302.555 104.75C301.388 104.75 300.305 105 299.305 105.5C298.338 106 297.522 106.7 296.855 107.6C296.222 108.5 295.772 109.567 295.505 110.8ZM330.578 126.45C327.911 126.45 325.878 125.833 324.478 124.6C323.111 123.367 322.428 121.567 322.428 119.2V105.2H317.028V100.25H322.428V93.7L328.278 92.35V100.25H335.728V105.2H328.278V117.95C328.278 119.217 328.544 120.117 329.078 120.65C329.644 121.183 330.594 121.45 331.928 121.45C332.628 121.45 333.244 121.4 333.778 121.3C334.344 121.2 334.944 121.05 335.578 120.85V125.7C334.911 125.933 334.094 126.117 333.128 126.25C332.161 126.383 331.311 126.45 330.578 126.45ZM344.679 126L337.529 100.25H343.129L347.829 118.1L353.329 100.25H358.279L363.779 118.1L368.429 100.25H373.929L366.779 126H361.129L355.729 108.3L350.329 126H344.679ZM389.19 126.5C386.657 126.5 384.357 125.917 382.29 124.75C380.257 123.55 378.64 121.95 377.44 119.95C376.24 117.917 375.64 115.65 375.64 113.15C375.64 110.65 376.24 108.4 377.44 106.4C378.64 104.367 380.257 102.767 382.29 101.6C384.357 100.4 386.657 99.8 389.19 99.8C391.757 99.8 394.057 100.4 396.09 101.6C398.157 102.767 399.79 104.367 400.99 106.4C402.19 108.4 402.79 110.65 402.79 113.15C402.79 115.65 402.19 117.917 400.99 119.95C399.79 121.95 398.157 123.55 396.09 124.75C394.057 125.917 391.757 126.5 389.19 126.5ZM389.19 121.4C390.657 121.4 391.974 121.033 393.14 120.3C394.34 119.567 395.29 118.583 395.99 117.35C396.69 116.083 397.04 114.683 397.04 113.15C397.04 111.583 396.69 110.183 395.99 108.95C395.29 107.717 394.34 106.733 393.14 106C391.974 105.267 390.657 104.9 389.19 104.9C387.757 104.9 386.44 105.267 385.24 106C384.04 106.733 383.09 107.717 382.39 108.95C381.724 110.183 381.39 111.583 381.39 113.15C381.39 114.683 381.724 116.083 382.39 117.35C383.09 118.583 384.04 119.567 385.24 120.3C386.44 121.033 387.757 121.4 389.19 121.4ZM407.309 126V100.25H413.159V103.35C413.959 102.183 414.942 101.283 416.109 100.65C417.309 100.017 418.642 99.7 420.109 99.7C421.276 99.7 422.176 99.8667 422.809 100.2V105.4C422.342 105.167 421.826 105 421.259 104.9C420.726 104.8 420.176 104.75 419.609 104.75C418.209 104.75 416.942 105.117 415.809 105.85C414.709 106.583 413.826 107.633 413.159 109V126H407.309ZM426.694 126V91L432.544 89.95V111.3L444.394 100.25H451.094L438.344 112.2L451.844 126H444.244L432.544 114.05V126H426.694Z" fill="black"/>
<defs>
<clipPath id="clip0_1418_8382">
<rect width="452" height="80" fill="white"/>
</clipPath>
</defs>
</svg>
